<svg width="65" height="64" viewBox="0 0 65 64" fill="none" xmlns="http://www.w3.org/2000/svg">
<path d="M53.0467 43.6133L49.3 41.84L49.34 27.4666C49.34 20.3466 44.8734 14.2666 38.5934 11.8533V11.2C38.58 7.95998 35.86 5.33331 32.5 5.33331C29.14 5.33331 26.42 7.95998 26.42 11.2V11.9066C20.2334 14.3733 15.8334 20.4133 15.8334 27.4666L15.7934 41.84L11.9667 43.6C10.6867 44.0933 9.83337 45.3333 9.83337 46.7066V50.1466C9.83337 51.9866 11.3267 53.48 13.1667 53.48H25.82C26.4734 56.56 29.22 58.8933 32.5 58.8933C35.78 58.8933 38.5267 56.5733 39.18 53.48H51.8334C53.6734 53.48 55.1667 51.9866 55.1667 50.1466V46.7066C55.1667 45.3333 54.3134 44.1066 53.0467 43.6133ZM32.5 9.33331C33.42 9.33331 34.1934 9.86665 34.4734 10.6C33.9267 10.5333 33.38 10.5066 32.8467 10.4933C32.0867 10.4933 31.3134 10.52 30.54 10.6C30.8067 9.86665 31.58 9.33331 32.5 9.33331ZM32.5 54.8933C31.46 54.8933 30.5534 54.32 30.06 53.48H34.94C34.4467 54.32 33.54 54.8933 32.5 54.8933ZM51.1667 49.48H13.8334V47.1466L17.66 45.3733C18.94 44.88 19.7934 43.6533 19.7934 42.2666L19.8334 27.4666C19.8334 20.44 25.5534 14.72 32.58 14.72C39.6067 14.72 45.3267 20.44 45.3267 27.4666L45.2867 42.2666C45.2867 43.6533 46.1267 44.88 47.4067 45.3867L51.1667 47.1466V49.48Z" fill="white"/>
<path d="M31.1667 18.0533C26.2067 18.0533 22.1801 22.08 22.1801 27.04C22.1801 28.1467 23.0734 29.04 24.1801 29.04C25.2867 29.04 26.1801 28.1467 26.1801 27.04C26.1801 24.2933 28.4201 22.0533 31.1667 22.0533C32.2734 22.0533 33.1667 21.16 33.1667 20.0533C33.1667 18.9467 32.2734 18.0533 31.1667 18.0533Z" fill="white"/>
</svg>
