<svg width="64" height="64" viewBox="0 0 64 64" fill="none" xmlns="http://www.w3.org/2000/svg">
<path d="M26.6667 29.3334H13.3334C11.8667 29.3334 10.6667 28.1334 10.6667 26.6667V13.3334C10.6667 11.8667 11.8667 10.6667 13.3334 10.6667H26.6667C28.1334 10.6667 29.3334 11.8667 29.3334 13.3334V26.6667C29.3334 28.1334 28.1334 29.3334 26.6667 29.3334Z" stroke="white" stroke-width="4" stroke-miterlimit="10"/>
<path d="M26.6667 54.6401H13.3334C11.8667 54.6401 10.6667 53.4401 10.6667 51.9734V38.6401C10.6667 37.1734 11.8667 35.9734 13.3334 35.9734H26.6667C28.1334 35.9734 29.3334 37.1734 29.3334 38.6401V51.9734C29.3334 53.4401 28.1334 54.6401 26.6667 54.6401Z" stroke="white" stroke-width="4" stroke-miterlimit="10"/>
<path d="M52.0001 29.3334H38.6668C37.2001 29.3334 36.0001 28.1334 36.0001 26.6667V13.3334C36.0001 11.8667 37.2001 10.6667 38.6668 10.6667H52.0001C53.4668 10.6667 54.6668 11.8667 54.6668 13.3334V26.6667C54.6668 28.1334 53.4668 29.3334 52.0001 29.3334Z" stroke="white" stroke-width="4" stroke-miterlimit="10"/>
<path d="M45.3335 54.6401C40.1735 54.6401 36.0001 50.4667 36.0001 45.3067C36.0001 40.1467 40.1735 35.9734 45.3335 35.9734C50.4935 35.9734 54.6668 40.1467 54.6668 45.3067C54.6668 50.4667 50.4935 54.6401 45.3335 54.6401Z" stroke="white" stroke-width="4" stroke-miterlimit="10"/>
</svg>
